<svg width="0" height="0" class="hidden">
  <symbol version="1.1" xmlns="http://www.w3.org/2000/svg" xmlns:xlink="http://www.w3.org/1999/xlink" x="0px" y="0px" enable-background="new 0 0 1000 1000" xml:space="preserve" viewBox="0 0 1000 1000" id="speedometer">
    <path d="M538.8,435.9l227.1-202.1L565.3,463.4c6.1,10.9,9.9,23.2,9.9,36.6c0,41.5-33.7,75.1-75.2,75.1c-41.5,0-75.2-33.6-75.2-75.1c0-41.5,33.6-75.2,75.2-75.2C514.3,424.8,527.4,429,538.8,435.9z M990,500c0,270.2-219.8,490-490,490C229.8,990,10,770.2,10,500C10,229.8,229.8,10,500,10C770.2,10,990,229.8,990,500z M882.7,666.2l-61.6-25l7.2-17.8l61.3,25c15.4-40.5,24.7-83.9,26.7-129.1h-65.8v-38.4h65.8c-2.2-47.1-11.9-92.1-28.5-133.9l-61.2,25.7l-7.4-17.7l61.2-25.7c-42.6-94.5-119.2-170.5-214.3-212l-25.1,61.6l-17.7-7.2l25-61.3C608,94.8,564.5,85.6,519.2,83.5v65.8h-38.3V83.5c-47.1,2.1-92.1,12-133.9,28.5l25.7,61.1l-17.7,7.4l-25.7-61.1c-40.6,18.3-77.6,43-110.1,72.6l46.5,46.5l-27.1,27.1l-46.5-46.5c-30.8,33.7-56.3,72.3-74.8,114.6l61.6,25l-7.2,17.8l-61.3-25c-15.5,40.4-24.7,83.8-26.8,129.1h65.8v38.3H83.5c2.1,47.1,12,92.1,28.5,133.9l61.1-25.7l7.4,17.7l-61.1,25.7c18.3,40.6,42.9,77.6,72.6,110.1l46.5-46.4l27.1,27.1l-46.5,46.4c74.2,67.8,172.6,109.6,280.8,109.6c108.2,0,206.5-41.7,280.8-109.6l-46.4-46.4l27.1-27.1l46.4,46.4C838.7,747.1,864.3,708.6,882.7,666.2z M361.6,761.6h276.9v-54.4H361.6V761.6z"></path>
  </symbol>
  <symbol version="1.1" id="target" xmlns="http://www.w3.org/2000/svg" xmlns:xlink="http://www.w3.org/1999/xlink" x="0px" y="0px" enable-background="new 0 0 122.88 119.853" xml:space="preserve" viewBox="0 0 122.88 119.853">
    <path d="M59.927,0h0.009v0.002c5.902,0.001,11.606,0.855,16.99,2.446c0.861,0.254,1.73,0.534,2.605,0.836 c4.428,1.532,8.614,3.565,12.491,6.029c0.273,0.173,0.354,0.535,0.182,0.808c-0.018,0.027-0.039,0.054-0.06,0.078l-4.288,5.498 c-0.19,0.244-0.536,0.296-0.788,0.125l-0.01-0.006c-1.09-0.673-2.216-1.31-3.372-1.909c-1.165-0.602-2.349-1.16-3.55-1.669 l-0.002-0.001v0.001c-6.206-2.633-13.035-4.09-20.208-4.09h-0.006V8.146c-7.146,0-13.958,1.451-20.152,4.071 c-1.012,0.428-2.005,0.886-2.975,1.371c-5.007,2.504-9.555,5.801-13.48,9.726l-0.004,0.004l-0.027,0.025 c-1.302,1.304-2.535,2.677-3.692,4.113c-1.164,1.445-2.255,2.956-3.262,4.524c-5.177,8.06-8.181,17.652-8.181,27.946v0.006H8.145 c0,7.146,1.451,13.958,4.071,20.152c0.428,1.013,0.886,2.005,1.371,2.975c2.504,5.006,5.801,9.555,9.727,13.48l0.004,0.004 l0.022,0.023c1.304,1.303,2.679,2.537,4.116,3.695c1.445,1.165,2.956,2.255,4.525,3.262c8.06,5.177,17.653,8.181,27.946,8.181 h0.006v0.003c7.148-0.001,13.958-1.451,20.152-4.071c1.013-0.428,2.005-0.886,2.975-1.371c5.007-2.504,9.556-5.801,13.48-9.726 l0.005-0.005l0.03-0.029c1.3-1.303,2.532-2.674,3.688-4.108c1.165-1.445,2.255-2.957,3.262-4.525 c5.178-8.06,8.181-17.652,8.181-27.945v-0.01h0.003c-0.001-4.319-0.532-8.521-1.533-12.537c-0.166-0.669-0.341-1.318-0.523-1.946 c-0.962-3.307-2.247-6.479-3.814-9.478c-0.136-0.259-0.058-0.573,0.172-0.741l5.541-4.381c0.252-0.2,0.619-0.157,0.818,0.096 c0.018,0.022,0.033,0.046,0.046,0.07L112.418,31l0.004,0.008l0.006,0.012l0.001,0c0.661,1.198,1.285,2.425,1.866,3.676 c0.582,1.252,1.121,2.525,1.615,3.814c2.547,6.652,3.943,13.874,3.943,21.418v0.006h-0.002c-0.001,8.271-1.679,16.154-4.711,23.321 c-0.491,1.163-1.021,2.312-1.588,3.443c-2.903,5.805-6.717,11.069-11.251,15.604l-0.004,0.004l-0.022,0.02 c-1.512,1.511-3.105,2.94-4.771,4.283c-1.673,1.349-3.421,2.609-5.234,3.774c-9.33,5.992-20.433,9.471-32.344,9.471h-0.006v-0.002 c-8.271-0.001-16.154-1.679-23.321-4.711c-1.163-0.491-2.312-1.022-3.444-1.589c-5.804-2.902-11.069-6.717-15.604-11.25 l-0.004-0.005l-0.028-0.029c-1.508-1.51-2.935-3.1-4.275-4.763c-1.348-1.673-2.609-3.421-3.773-5.234 C3.479,82.939,0,71.837,0,59.927V59.92h0.002c0.001-8.271,1.679-16.153,4.71-23.321c0.492-1.163,1.022-2.311,1.589-3.444 c2.902-5.804,6.717-11.068,11.25-15.603l0.004-0.004l0.026-0.023c1.51-1.509,3.103-2.938,4.766-4.279 c1.674-1.348,3.421-2.609,5.235-3.773C36.915,3.478,48.017,0,59.927,0L59.927,0z M93.067,16.299l16.77-16.024l1.117,10.807 l11.926,1.491l-17.958,17.401l-8.738,0.75L61.316,63.154l-3.213-2.767l33.027-34.5L93.067,16.299L93.067,16.299z M59.927,40.958 h0.015v0.002c1.128,0.001,2.226,0.098,3.283,0.284c0.123,0.022,0.297,0.055,0.517,0.1h0.003l0,0c0.88,0.18,1.742,0.423,2.579,0.723 c0.304,0.108,0.462,0.442,0.353,0.746c-0.021,0.06-0.053,0.114-0.09,0.162l0.001,0.001l-4.681,6.004 c-0.131,0.169-0.339,0.244-0.538,0.218V49.2l-0.027-0.004v0.001l-0.208-0.025l-0.018-0.003l-0.18-0.019l-0.015-0.002 c-0.312-0.027-0.643-0.042-0.994-0.042h-0.006v-0.003c-1.491,0.001-2.915,0.305-4.209,0.853c-0.214,0.091-0.422,0.187-0.621,0.286 c-1.042,0.521-1.992,1.21-2.815,2.033l-0.004,0.004l-0.027,0.024c-0.264,0.266-0.514,0.547-0.75,0.84 c-0.243,0.301-0.471,0.618-0.682,0.946c-1.08,1.682-1.706,3.687-1.706,5.837v0.006h-0.003c0.001,1.493,0.305,2.916,0.853,4.209 c0.091,0.215,0.187,0.423,0.286,0.621c0.521,1.043,1.211,1.992,2.033,2.814l0.004,0.005l0.024,0.025 c0.266,0.264,0.547,0.516,0.84,0.751c0.301,0.243,0.618,0.472,0.946,0.683c1.683,1.079,3.688,1.706,5.837,1.706h0.006v0.002 c1.493,0,2.917-0.304,4.209-0.852c0.215-0.091,0.422-0.187,0.621-0.286c1.043-0.522,1.992-1.211,2.814-2.034l0.005-0.005 l0.02-0.019c0.146-0.147,0.288-0.296,0.419-0.443s0.268-0.312,0.408-0.49c0.678-0.86,1.229-1.824,1.621-2.861 c0.045-0.121,0.126-0.219,0.227-0.284l7.564-5.982c0.253-0.2,0.619-0.157,0.819,0.096c0.07,0.089,0.109,0.192,0.121,0.297h0.003 l0.005,0.045l0.002,0.031l0.024,0.25v0.007h0.002l0.022,0.272v0.005c0.035,0.48,0.055,0.957,0.055,1.431v0.006h-0.003 c-0.001,2.617-0.532,5.111-1.491,7.379c-0.154,0.365-0.323,0.729-0.503,1.09c-0.921,1.839-2.127,3.506-3.56,4.938l-0.004,0.004 l-0.032,0.027c-0.472,0.47-0.968,0.917-1.485,1.334c-0.53,0.426-1.084,0.826-1.656,1.193c-2.954,1.896-6.466,2.997-10.234,2.997 h-0.006v-0.003c-2.617-0.001-5.111-0.532-7.378-1.491c-0.365-0.154-0.73-0.323-1.09-0.503c-1.839-0.921-3.506-2.127-4.938-3.559 l-0.004-0.004l-0.033-0.036c-0.468-0.471-0.912-0.966-1.328-1.482c-0.427-0.53-0.826-1.083-1.194-1.656 c-1.896-2.953-2.997-6.466-2.997-10.233V59.92h0.002c0.001-2.616,0.533-5.11,1.491-7.377c0.155-0.365,0.323-0.729,0.503-1.09 c0.919-1.836,2.125-3.502,3.559-4.936l0.001-0.001l-0.001-0.001l0.004-0.004c0.475-0.474,0.982-0.929,1.518-1.361 c0.53-0.427,1.083-0.826,1.656-1.194C52.647,42.059,56.161,40.958,59.927,40.958L59.927,40.958z M60.92,49.148 c-0.307-0.038-0.531-0.31-0.512-0.618L60.92,49.148L60.92,49.148z M59.927,20.31h0.01v0.002c3.544,0.001,6.977,0.467,10.238,1.338 c0.531,0.142,1.059,0.295,1.582,0.459c2.685,0.838,5.251,1.958,7.661,3.323c0.28,0.159,0.379,0.516,0.22,0.796 c-0.015,0.024-0.03,0.049-0.048,0.071l-0.003,0.003l-4.344,5.572c-0.182,0.232-0.505,0.29-0.753,0.147l-0.014-0.007 c-0.588-0.307-1.201-0.604-1.838-0.884c-0.641-0.283-1.285-0.543-1.931-0.779c-3.359-1.226-6.991-1.895-10.781-1.895h-0.006v-0.002 c-4.343,0-8.482,0.883-12.247,2.475c-0.594,0.252-1.198,0.531-1.808,0.835l-0.046,0.021c-3.023,1.519-5.771,3.514-8.146,5.888 l-0.004,0.004L37.646,37.7c-0.787,0.789-1.534,1.623-2.235,2.493c-0.707,0.878-1.37,1.797-1.982,2.75 c-3.145,4.898-4.97,10.728-4.97,16.983v0.006h-0.002c0,4.343,0.883,8.483,2.475,12.247c0.26,0.616,0.539,1.22,0.833,1.808 c1.521,3.041,3.525,5.805,5.911,8.191l0.004,0.004c0.802,0.803,1.643,1.559,2.515,2.261c0.878,0.707,1.797,1.37,2.75,1.982 c4.898,3.146,10.729,4.97,16.983,4.97h0.006v0.002c4.343,0,8.483-0.882,12.248-2.474c0.616-0.261,1.22-0.539,1.808-0.834 c3.041-1.521,5.805-3.524,8.191-5.911l0.004-0.004c0.803-0.803,1.559-1.643,2.261-2.515c0.707-0.879,1.37-1.797,1.982-2.751 c3.147-4.899,4.972-10.729,4.972-16.982h-0.002v-0.015h0.002c0-1.941-0.178-3.845-0.516-5.691c-0.051-0.276-0.111-0.578-0.18-0.899 c-0.327-1.535-0.766-3.024-1.303-4.456c-0.096-0.257,0-0.539,0.217-0.687l5.663-4.478c0.253-0.2,0.619-0.157,0.818,0.096 c0.03,0.039,0.054,0.078,0.073,0.12l0.001,0l0.004,0.01l0.004,0.008l0.001-0.001c0.295,0.669,0.579,1.365,0.85,2.086 c0.267,0.712,0.513,1.427,0.734,2.143c1.155,3.719,1.778,7.67,1.778,11.763v0.006h-0.003c0,5.467-1.109,10.678-3.113,15.415 c-0.324,0.767-0.676,1.527-1.051,2.277c-1.919,3.838-4.44,7.318-7.437,10.314l-0.005,0.004l-0.022,0.021 c-0.998,0.995-2.048,1.939-3.146,2.824c-1.106,0.892-2.262,1.725-3.46,2.494c-6.17,3.962-13.509,6.261-21.381,6.261h-0.006V99.54 c-5.467-0.001-10.678-1.109-15.416-3.113c-0.767-0.325-1.527-0.676-2.277-1.051c-3.837-1.92-7.318-4.44-10.315-7.437l-0.004-0.004 l-0.028-0.03c-0.993-0.995-1.934-2.043-2.816-3.139c-0.892-1.106-1.725-2.262-2.495-3.46c-3.962-6.169-6.261-13.509-6.261-21.38 V59.92h0.002c0.001-5.467,1.111-10.678,3.115-15.416c0.324-0.767,0.675-1.527,1.05-2.277c1.918-3.835,4.439-7.314,7.436-10.312 l0.001-0.001l-0.001-0.001l0.004-0.004l0.026-0.024c0.996-0.995,2.046-1.937,3.142-2.82c1.107-0.892,2.262-1.725,3.46-2.494 C44.715,22.609,52.056,20.31,59.927,20.31L59.927,20.31z"></path>>
  </symbol>
  <symbol version="1.1" id="speedometer-2" xmlns="http://www.w3.org/2000/svg" xmlns:xlink="http://www.w3.org/1999/xlink" x="0px" y="0px" xml:space="preserve" viewBox="0 0 601.799 601.799">
    <path fill="#fff" d="M300.899,0C134.716,0,0,134.716,0,300.898c0,166.184,134.716,300.9,300.899,300.9c166.183,0,300.9-134.717,300.9-300.9C601.799,134.716,467.082,0,300.899,0z M482.186,480.02c-0.324,0.396-0.604,0.822-0.977,1.193c-0.369,0.369-0.795,0.648-1.193,0.977C433.932,527.727,370.652,555.9,300.899,555.9c-69.75,0-133.024-28.17-179.108-73.703c-0.401-0.326-0.829-0.609-1.203-0.982c-0.376-0.375-0.658-0.805-0.985-1.205C74.07,433.924,45.9,370.648,45.9,300.898c0-69.743,28.167-133.018,73.697-179.101c0.33-0.404,0.612-0.835,0.988-1.212s0.805-0.658,1.208-0.988C167.881,74.07,231.155,45.9,300.899,45.9c69.75,0,133.027,28.173,179.111,73.706c0.4,0.328,0.826,0.606,1.199,0.979c0.373,0.373,0.652,0.799,0.98,1.199c45.535,46.084,73.709,109.361,73.709,179.114C555.9,370.654,527.725,433.932,482.186,480.02z
  "></path>
    <path fill="#fff" d="M483.48,285.599h41.238c-3.41-50.374-23.506-96.219-54.811-132.073l-29.088,29.088c-2.986,2.986-6.902,4.479-10.816,4.479s-7.834-1.493-10.818-4.479c-5.975-5.977-5.975-15.664,0-21.637l29.086-29.085c-35.854-31.304-81.695-51.399-132.07-54.811v41.239c0,8.449-6.85,15.3-15.299,15.3c-8.449,0-15.3-6.852-15.3-15.3V77.082c-50.374,3.412-96.216,23.507-132.073,54.811l29.085,29.085c5.976,5.976,5.976,15.664,0,21.637c-2.99,2.986-6.903,4.479-10.82,4.479s-7.831-1.493-10.82-4.479l-29.085-29.085c-31.304,35.854-51.396,81.696-54.808,132.07h41.239c8.449,0,15.3,6.851,15.3,15.299c0,8.449-6.852,15.301-15.3,15.301H77.082c3.412,50.373,23.507,96.215,54.811,132.068l29.085-29.084c5.976-5.973,15.661-5.973,21.637,0c5.976,5.977,5.976,15.664,0,21.637l-29.085,29.086c6.956,6.07,14.244,11.766,21.913,16.955c19.474-50.289,68.299-85.953,125.466-85.953c57.164,0,105.98,35.668,125.457,85.953c7.668-5.189,14.957-10.885,21.912-16.955l-29.086-29.086c-5.975-5.977-5.975-15.664,0-21.637c5.971-5.973,15.666-5.973,21.635,0l29.088,29.088c31.305-35.854,51.4-81.695,54.812-132.07H483.48c-8.453,0-15.301-6.852-15.301-15.299C468.18,292.453,475.027,285.599,483.48,285.599z M335.547,314.959c-9.262,19.922-32.919,28.566-52.843,19.303c-19.923-9.262-28.565-32.919-19.302-52.843c5.569-11.98,16.355-19.841,28.396-22.222l73.182-101.91l-30.746,121.638C340.172,289.666,341.117,302.979,335.547,314.959z"></path>
  </symbol>
  <symbol version="1.1" xmlns="http://www.w3.org/2000/svg" xmlns:xlink="http://www.w3.org/1999/xlink" enable-background="new 0 0 297 297" viewBox="0 0 297 297" id="target-2">
    <path fill="#fff" d="m163.922,31.916c-33.472,0-64.08,12.478-87.433,33.018l-2.065-2.089v-27.843c0-2.214-0.856-4.342-2.388-5.94l-25.348-26.422c-2.423-2.526-6.141-3.326-9.392-2.021-3.25,1.307-5.379,4.458-5.379,7.961v22.8h-22.8c-3.438,0-6.544,2.052-7.893,5.215-1.347,3.162-0.678,6.824 1.701,9.305l25.349,26.422c1.619,1.687 3.854,2.64 6.191,2.64h27.828l2.086,2.084c-20.53,23.35-33,53.95-33,87.413-3.55271e-15,73.083 59.459,132.541 132.543,132.541 73.083,0 132.542-59.458 132.542-132.543s-59.459-132.541-132.542-132.541zm-106.657,25.885h-19.141l-8.885-9.262h11.258c4.738,0 8.58-3.841 8.58-8.58v-10.042l8.188,8.535v19.349zm106.657,222.039c-63.622,0-115.383-51.761-115.383-115.383 0-28.734 10.56-55.047 28-75.266l12.955,12.942c-14.157,16.879-22.696,38.622-22.696,62.324 0,53.555 43.569,97.125 97.124,97.125s97.124-43.57 97.124-97.125-43.569-97.124-97.124-97.124c-23.782,0-45.59,8.597-62.493,22.839l-12.865-13.019c20.232-17.487 46.581-28.078 75.358-28.078 63.622,0 115.382,51.76 115.382,115.382s-51.76,115.383-115.382,115.383zm-49.23-152.535c-7.825,10.343-12.477,23.213-12.477,37.153 0,34.026 27.681,61.707 61.707,61.707 34.025,0 61.706-27.681 61.706-61.707 0-34.025-27.681-61.706-61.706-61.706-14.089,0-27.081,4.756-37.48,12.733l-12.907-13.062c13.763-11.2 31.301-17.93 50.387-17.93 44.093,0 79.965,35.872 79.965,79.965s-35.872,79.966-79.965,79.966-79.965-35.873-79.965-79.966c0-18.973 6.654-36.413 17.735-50.139l13,12.986zm25.623,25.597c-1.716,3.49-2.683,7.411-2.683,11.556 0,14.496 11.793,26.289 26.289,26.289 14.495,0 26.289-11.793 26.289-26.289 0-14.495-11.793-26.289-26.289-26.289-4.372,0-8.494,1.079-12.125,2.974l-13.169-13.326c7.191-4.979 15.905-7.906 25.294-7.906 24.563,0 44.546,19.984 44.546,44.546 0,24.563-19.984,44.547-44.546,44.547-24.563,0-44.547-19.984-44.547-44.547 0-9.205 2.807-17.766 7.609-24.874l13.332,13.319zm23.607,2.427c5.034,0 9.129,4.095 9.129,9.129s-4.095,9.13-9.129,9.13c-5.034,0-9.13-4.096-9.13-9.13s4.096-9.129 9.13-9.129z"></path>
  </symbol>
</svg>